<?xml version="1.0" encoding="UTF-8"?><svg id="Capa_2" xmlns="http://www.w3.org/2000/svg" viewBox="0 0 164.84 319.38"><g id="Capa_2_copia"><path id="newest" d="m139.38,298.77h-12.96c7.27-12.14,16.99-23.42,24.84-35.58.94-1.46,1.86-2.93,2.74-4.42.07-.12.13-.24.21-.36.82-1.4,1.62-2.81,2.37-4.24.13-.24.24-.5.36-.74.68-1.32,1.34-2.64,1.95-3.99.17-.38.32-.78.48-1.17.53-1.22,1.06-2.45,1.52-3.7.21-.56.37-1.14.56-1.7.38-1.11.77-2.21,1.09-3.34.21-.73.35-1.48.53-2.22.24-1,.52-1.98.71-3,.19-1.01.3-2.05.44-3.07.11-.79.26-1.55.34-2.35.18-1.85.27-3.73.27-5.65,0-5.52-.03-12.05-2.67-21.13h0c-1.48-5.1-3.81-11.01-7.43-18.01-.9-1.74-1.89-3.56-2.95-5.44-.15-.27-.3-.53-.45-.8-1.13-1.97-2.33-4-3.66-6.13-1.07-1.72-2.17-3.42-3.29-5.11-11.19-16.89-24.31-32.36-31.82-45.57-3.75-6.6-6.1-12.64-6.1-18v-44.64c0-4.73-2.78-12.06,11.65-35.37,2.3-3.72-.18-8.57-4.54-8.8C70.65,11.91,60.4,0,41.21,0c-12.65,0-21.42,1.3-26.31,2.29-2.68.55-4.6,2.88-4.6,5.62v.65c0,2.7,1.86,5.12,4.52,5.6,17.09,3.05,40.42,22.2,43.56,44.22v44.64c0,17.17-24.04,41.21-41.21,68.68C0,199.18,0,212.92,0,223.22c0,30.91,24.04,51.51,38.42,75.55h-12.96c-2.8,0-5.19,2.03-5.65,4.79l-2.64,15.82h130.5l-2.64-15.82c-.46-2.76-2.85-4.79-5.65-4.79Z"/></g></svg>