<?xml version="1.0" encoding="UTF-8"?><svg id="Capa_2" xmlns="http://www.w3.org/2000/svg" viewBox="0 0 251.34 71.85"><g id="Capa_2_copia"><g><path d="m59.81,50.29c-4.22,0-4.84-.47-4.84-4.53V11.32c0-8.28-2.5-11.32-9.76-11.32-1.87,0-6,0-6.71,0H0v57.87h7.89v-25.38h29.91v-7.5H7.89V7.58h34.74c4.22,0,4.84.55,4.84,4.61v34.44c0,8.28.2,11.32,7.46,11.32,1.87,0,4.65-.03,6.6-1.97v-5.68h-1.72Z"/><path d="m66.68,45.53c0-12.34,6.95-15.93,28.66-15.93h2.34c-.16-6.25-1.64-9.06-10.85-9.06-5.47,0-10.07,1.95-12.81,3.67l-3.98-5.93c2.89-1.95,9.76-4.84,17.49-4.84,14.84,0,17.49,5.08,17.49,17.41v15.46c0,4.22.31,4.84,4.3,4.84v6.64c-.55.16-1.56.16-3.12.16-4.76,0-6.33-1.33-7.42-4.92-2.58,3.67-7.26,5.62-16.56,5.62-12.5,0-15.54-5.78-15.54-13.12Zm31-6.79v-2.66h-1.95c-17.88,0-21.79,2.03-21.79,8.9,0,4.61,2.11,7.11,9.53,7.11,10.07,0,14.21-4.06,14.21-13.35Z"/><path d="m127.27,41.47c-.63.78-1.02,1.72-1.02,2.65,0,2.58,1.8,2.97,8.67,2.97,16.24,0,21.24,2.73,21.24,11.48,0,9.29-6.01,13.27-21.94,13.27-14.6,0-20.7-2.03-20.7-10.78,0-4.92,1.8-9.29,8.28-10.62-1.72-1.17-2.42-2.89-2.42-5.23,0-2.11.7-4.29,1.95-6.01-3.59-2.26-5.31-5.93-5.31-11.17,0-9.68,5.47-14.6,18.43-14.6.94,0,1.87,0,2.81.08l17.1-2.42v6.25h-7.03c3.59,1.95,5.62,5.15,5.62,10.7,0,9.61-5.7,13.98-18.51,13.98-2.73,0-5.08-.16-7.18-.55Zm21.24,17.49c0-4.53-3.51-5.47-14.06-5.47-11.79,0-13.28,2.73-13.28,6.32,0,4.61,3.75,6.01,13.28,6.01,11.4,0,14.06-2.42,14.06-6.87Zm-3.05-30.93c0-5.55-3.59-7.73-11.01-7.73-8.04,0-11.09,2.19-11.09,7.73s3.05,7.73,11.09,7.73,11.01-2.34,11.01-7.73Z"/><path d="m161.07,36.08c0-14.84,6.01-22.65,21.4-22.65s21.48,7.81,21.48,22.65-6.09,22.65-21.48,22.65-21.4-7.81-21.4-22.65Zm35.14.16c0-10-3.51-15.54-13.75-15.54s-13.74,5.55-13.74,15.54,3.51,15.62,13.74,15.62,13.75-5.62,13.75-15.62Z"/><path d="m213.07,14.84l6.01-1.4.63,5.15c2.03-2.73,6.17-5.15,16.01-5.15,13.74,0,15.62,7.26,15.62,17.96v26.47h-7.58v-24.99c0-7.03-.62-11.95-10.46-11.95-10.7,0-12.57,5.39-12.57,12.89v24.05h-7.65V14.84Z"/></g></g></svg>